<svg xmlns="http://www.w3.org/2000/svg" width="500" height="500" style="width:100%;height:100%"><defs><clipPath id="b"><path d="M0 0h500v500H0z"/></clipPath><filter id="a" filterUnits="objectBoundingBox" x="0%" y="0%" width="100%" height="100%"><feComponentTransfer in="SourceGraphic"><feFuncA type="table" tableValues="1.0 0.0"/></feComponentTransfer></filter><mask id="c"><g filter="url(#a)"><path fill="red" d="M81.5 39.239H-81.224l-.138-108.978H81.362L81.5 39.239z" transform="translate(250 257.464)" display="block"/></g></mask></defs><g clip-path="url(#b)"><g display="block"><path stroke-linecap="round" stroke-linejoin="round" stroke="#08A88A" stroke-width="12.04" d="M168.638 154.181h47.044" fill="none"/><path stroke-linecap="round" stroke-linejoin="round" stroke="#08A88A" stroke-width="15.96" d="M272.862 154.181s0 0 0 0m29.25 0s0 0 0 0m29.25 0s0 0 0 0" fill="none"/><path stroke-linecap="round" stroke-linejoin="round" stroke="#FFA001" stroke-width="12.04" d="M129.911 356.746h240.178V116.567H129.911v240.179zm13.343 0h213.492v26.686H143.254v-26.686z" fill="none"/></g><g mask="url(#c)" display="block"><path stroke-linecap="round" stroke-linejoin="round" stroke="#08A88A" stroke-width="12.04" d="M169.552 260.536h160.474" fill="none"/><path stroke-linecap="round" stroke-linejoin="round" stroke="#FFA001" stroke-width="12.04" d="M168.776 296.203l-.138-108.478h162.724l.138 108.478m-162.724 0L168.638 327h162.724l.138-30.797" fill="none"/></g><g display="block"><path stroke-linecap="round" stroke-linejoin="round" stroke="#FFA001" stroke-width="12.04" d="M331.5 296.703H168.776l-.138-108.978h162.724l.138 108.978zM209.328 216.106h81.344" fill="none"/></g></g></svg>