<svg xmlns="http://www.w3.org/2000/svg" width="500" height="500" style="width:100%;height:100%"><defs><clipPath id="a"><path d="M0 0h500v500H0z"/></clipPath></defs><g display="block" clip-path="url(#a)"><path stroke-linecap="round" stroke-linejoin="round" stroke="#FFF" stroke-width="19.656" d="M472.706 153.748c0 40.232-32.62 72.852-72.852 72.852-8.081 0-15.85-1.31-23.104-3.744v256.121h-253.5V222.528a72.732 72.732 0 01-24.07 4.072c-40.233 0-72.853-32.62-72.853-72.852 0-40.232 32.62-72.852 72.852-72.852 10.468 0 20.436 2.215 29.422 6.193 23.244-34.367 68.53-57.704 120.588-57.704 52.182 0 97.562 23.431 120.728 57.938 9.126-4.134 19.266-6.427 29.937-6.427 40.232 0 72.852 32.62 72.852 72.852z" fill="none"/><path stroke-linecap="round" stroke-linejoin="round" stroke="#B3DEE4" stroke-width="19.656" d="M308.523 430.96v-55.9M191.477 430.96v-55.9M250 430.96v-55.9" fill="none"/><g><path stroke-linecap="round" stroke-linejoin="round" stroke="#FFF" stroke-width="19.656" d="M328.42 193.149c-11.858 5.84-38.727 17.272-75.46 17.584-38.32.326-66.39-11.628-78.26-17.445" fill="none"/></g><g><path stroke-linecap="round" stroke-linejoin="round" stroke="#FFF" stroke-width="19.656" d="M376.75 478.977h-253.5V430.96h253.5v48.017z" fill="none"/></g></g></svg>