<svg xmlns="http://www.w3.org/2000/svg" viewBox="0 0 1440 320"><path fill="#ffa101" fill-opacity="1" d="M0,320L21.8,309.3C43.6,299,87,277,131,234.7C174.5,192,218,128,262,133.3C305.5,139,349,213,393,240C436.4,267,480,245,524,208C567.3,171,611,117,655,112C698.2,107,742,149,785,170.7C829.1,192,873,192,916,170.7C960,149,1004,107,1047,106.7C1090.9,107,1135,149,1178,154.7C1221.8,160,1265,128,1309,122.7C1352.7,117,1396,139,1418,149.3L1440,160L1440,320L1418.2,320C1396.4,320,1353,320,1309,320C1265.5,320,1222,320,1178,320C1134.5,320,1091,320,1047,320C1003.6,320,960,320,916,320C872.7,320,829,320,785,320C741.8,320,698,320,655,320C610.9,320,567,320,524,320C480,320,436,320,393,320C349.1,320,305,320,262,320C218.2,320,175,320,131,320C87.3,320,44,320,22,320L0,320Z"></path></svg>